<svg xmlns="http://www.w3.org/2000/svg" viewBox="0 0 208 100" preserveAspectRatio="none"><rect x="0.5" y="10.0" width="3" height="80.0" rx="1"/><rect x="4.5" y="5.8" width="3" height="88.4" rx="1"/><rect x="8.5" y="15.1" width="3" height="69.8" rx="1"/><rect x="12.5" y="12.8" width="3" height="74.4" rx="1"/><rect x="16.5" y="10.5" width="3" height="79.0" rx="1"/><rect x="20.5" y="31.9" width="3" height="36.2" rx="1"/><rect x="24.5" y="31.9" width="3" height="36.2" rx="1"/><rect x="28.5" y="38.5" width="3" height="22.9" rx="1"/><rect x="32.5" y="27.0" width="3" height="46.1" rx="1"/><rect x="36.5" y="26.0" width="3" height="48.0" rx="1"/><rect x="40.5" y="21.8" width="3" height="56.5" rx="1"/><rect x="44.5" y="22.9" width="3" height="54.3" rx="1"/><rect x="48.5" y="33.4" width="3" height="33.2" rx="1"/><rect x="52.5" y="35.6" width="3" height="28.7" rx="1"/><rect x="56.5" y="32.3" width="3" height="35.4" rx="1"/><rect x="60.5" y="23.4" width="3" height="53.1" rx="1"/><rect x="64.5" y="20.1" width="3" height="59.7" rx="1"/><rect x="68.5" y="13.4" width="3" height="73.3" rx="1"/><rect x="72.5" y="8.3" width="3" height="83.4" rx="1"/><rect x="76.5" y="10.4" width="3" height="79.3" rx="1"/><rect x="80.5" y="16.4" width="3" height="67.2" rx="1"/><rect x="84.5" y="11.3" width="3" height="77.3" rx="1"/><rect x="88.5" y="32.3" width="3" height="35.4" rx="1"/><rect x="92.5" y="35.2" width="3" height="29.6" rx="1"/><rect x="96.5" y="30.4" width="3" height="39.1" rx="1"/><rect x="100.5" y="32.5" width="3" height="35.0" rx="1"/><rect x="104.5" y="23.6" width="3" height="52.8" rx="1"/><rect x="108.5" y="26.0" width="3" height="48.1" rx="1"/><rect x="112.5" y="29.7" width="3" height="40.7" rx="1"/><rect x="116.5" y="32.4" width="3" height="35.2" rx="1"/><rect x="120.5" y="34.9" width="3" height="30.2" rx="1"/><rect x="124.5" y="29.1" width="3" height="41.8" rx="1"/><rect x="128.5" y="22.7" width="3" height="54.6" rx="1"/><rect x="132.5" y="19.5" width="3" height="60.9" rx="1"/><rect x="136.5" y="18.7" width="3" height="62.7" rx="1"/><rect x="140.5" y="5.6" width="3" height="88.8" rx="1"/><rect x="144.5" y="11.1" width="3" height="77.7" rx="1"/><rect x="148.5" y="3.9" width="3" height="92.3" rx="1"/><rect x="152.5" y="21.8" width="3" height="56.3" rx="1"/><rect x="156.5" y="28.8" width="3" height="42.5" rx="1"/><rect x="160.5" y="37.3" width="3" height="25.4" rx="1"/><rect x="164.5" y="38.5" width="3" height="23.0" rx="1"/><rect x="168.5" y="30.5" width="3" height="39.0" rx="1"/><rect x="172.5" y="26.6" width="3" height="46.7" rx="1"/><rect x="176.5" y="22.0" width="3" height="56.1" rx="1"/><rect x="180.5" y="27.9" width="3" height="44.2" rx="1"/><rect x="184.5" y="23.7" width="3" height="52.6" rx="1"/><rect x="188.5" y="34.9" width="3" height="30.2" rx="1"/><rect x="192.5" y="37.4" width="3" height="25.2" rx="1"/><rect x="196.5" y="32.4" width="3" height="35.2" rx="1"/><rect x="200.5" y="15.3" width="3" height="69.4" rx="1"/><rect x="204.5" y="18.9" width="3" height="62.2" rx="1"/></svg>
